<svg width="290" height="290" viewBox="0 0 290 290" fill="none" xmlns="http://www.w3.org/2000/svg">
<rect width="290" height="290" fill="#4200FE"/>
<path d="M145.5 232C131.645 232 121.16 222.786 117.416 213.384C105.807 217.897 93.2629 215.64 84.2759 206.614C76.5995 198.904 73.6039 187.058 76.7868 176.527C76.974 175.399 77.3484 174.459 77.7229 173.518L74.9145 172.014C65.1785 166.749 59 156.407 59 145.312C59 134.217 65.1785 123.687 74.9145 118.422C75.8506 117.858 76.7867 117.482 77.7229 117.105C77.3484 115.977 76.974 115.037 76.7868 114.097C73.6039 103.566 76.4123 91.7196 84.2759 83.8217C93.8246 74.6076 106.743 73.1033 117.228 77.0522L118.352 74.9837C123.22 65.7696 132.768 59 144.751 59C155.798 59 165.159 64.4533 170.776 74.0435C171.525 75.1717 172.087 76.3 172.648 77.4283C183.695 73.1033 196.801 74.2315 206.724 83.8217C214.588 91.7196 217.396 103.566 214.213 114.097C214.026 115.037 213.652 115.977 213.277 117.105C214.213 117.482 215.149 117.858 216.085 118.422C225.821 123.687 232 134.217 232 145.312C232 156.407 225.821 166.749 216.085 172.014L213.277 173.518C213.652 174.459 214.026 175.399 214.213 176.527C217.396 187.058 214.4 198.904 206.724 206.614C197.363 216.016 184.631 217.709 173.584 213.384C173.21 214.324 172.648 215.264 172.087 216.204C166.47 226.359 157.108 232 145.5 232ZM83.3398 145.312C83.3398 155.466 103.748 151.517 107.68 160.92C111.611 170.51 94.1991 182.168 101.501 189.502C102.812 190.818 104.122 191.195 105.62 191.195C111.799 191.195 119.85 182.545 126.777 182.545C127.9 182.545 128.837 182.733 129.773 183.109C139.321 187.058 135.202 207.742 145.5 207.742C155.798 207.742 151.679 187.058 161.227 183.109C162.163 182.733 163.1 182.545 164.223 182.545C171.15 182.545 179.201 191.195 185.38 191.195C186.878 191.195 188.188 190.818 189.499 189.502C196.801 182.168 179.388 170.51 183.32 160.92C187.252 151.517 207.66 155.466 207.66 145.312C207.66 134.97 187.252 139.107 183.32 129.516C179.388 120.114 196.801 108.267 189.499 101.122C188.188 99.8054 186.878 99.2413 185.38 99.2413C179.201 99.2413 171.15 107.891 164.223 107.891C163.1 107.891 162.163 107.703 161.227 107.327C151.679 103.378 154.113 83.2576 144.751 83.2576C134.828 83.2576 139.321 103.378 129.773 107.327C128.837 107.703 127.9 107.891 126.777 107.891C119.85 107.891 111.799 99.2413 105.62 99.2413C104.122 99.2413 102.812 99.8054 101.501 101.122C94.1991 108.267 111.611 120.114 107.68 129.516C103.748 139.107 83.3398 134.97 83.3398 145.312Z" fill="#FBFBFB"/>
</svg>
