<svg width="150" height="150" viewBox="0 0 150 150" fill="none" xmlns="http://www.w3.org/2000/svg">
<g clip-path="url(#clip0_580_1083)">
<path fill-rule="evenodd" clip-rule="evenodd" d="M60.8252 15.0321C48.4412 17.9742 37.2698 24.6735 28.8417 34.2122C20.4136 43.7508 15.1411 55.6622 13.7466 68.3143H42.5252C44.4859 49.35 50.7645 31.1357 60.8252 15.0321ZM89.1752 15.0321C99.2732 31.158 105.534 49.387 107.475 68.3143H136.254C134.859 55.6622 129.587 43.7508 121.159 34.2122C112.731 24.6735 101.559 17.9742 89.1752 15.0321ZM93.9966 68.3143C91.8914 50.1913 85.3683 32.8626 75.0002 17.85C64.6322 32.8626 58.109 50.1913 56.0038 68.3143H93.9966ZM56.0038 81.7071H93.9966C91.8914 99.8301 85.3683 117.159 75.0002 132.171C64.6322 117.159 58.109 99.8301 56.0038 81.7071ZM42.5252 81.7071H13.7466C15.1411 94.3592 20.4136 106.271 28.8417 115.809C37.2698 125.348 48.4412 132.047 60.8252 134.989C50.7272 118.863 44.4664 100.634 42.5252 81.7071ZM89.1752 134.989C99.2732 118.863 105.534 100.634 107.475 81.7071H136.254C134.859 94.3592 129.587 106.271 121.159 115.809C112.731 125.348 101.559 132.047 89.1752 134.989ZM75.0002 150.021C84.8508 150.021 94.6049 148.081 103.706 144.312C112.806 140.542 121.075 135.017 128.041 128.051C135.006 121.086 140.531 112.817 144.301 103.716C148.071 94.6154 150.011 84.8613 150.011 75.0107C150.011 65.1602 148.071 55.4061 144.301 46.3054C140.531 37.2046 135.006 28.9355 128.041 21.9701C121.075 15.0047 112.806 9.47949 103.706 5.70985C94.6049 1.94021 84.8508 -1.46785e-07 75.0002 0C55.1061 2.96445e-07 36.0269 7.90289 21.9596 21.9701C7.89239 36.0374 -0.010498 55.1166 -0.010498 75.0107C-0.010498 94.9048 7.89239 113.984 21.9596 128.051C36.0269 142.119 55.1061 150.021 75.0002 150.021Z" fill="black"/>
</g>
<defs>
<clipPath id="clip0_580_1083">
<rect width="150" height="150" fill="white"/>
</clipPath>
</defs>
</svg>
