<svg width="676" height="87" viewBox="0 0 676 87" fill="none" xmlns="http://www.w3.org/2000/svg">
<path d="M36.393 83.2174C15.0298 83.2174 0 73.3826 0 59.4815H13.2338C13.2338 66.1956 22.781 70.9239 36.393 70.9239C50.0049 70.9239 59.5521 66.1956 59.5521 59.4815C59.5521 38.2043 1.89054 62.3185 1.89054 26.4783C1.89054 13.1446 16.1641 3.7826 36.393 3.7826C55.4874 3.7826 69.0048 13.1446 69.0048 26.4783H55.771C55.771 20.4261 47.7362 16.0761 36.393 16.0761C23.9154 16.0761 15.1243 20.4261 15.1243 26.4783C15.1243 47.3772 72.7859 24.0196 72.7859 59.4815C72.7859 73.3826 57.7561 83.2174 36.393 83.2174Z" fill="#4200FE"/>
<path d="M126.224 87C119.229 87 113.935 82.3663 112.045 77.638C106.184 79.9076 99.8507 78.7728 95.3134 74.2337C91.4377 70.3565 89.9253 64.3989 91.5323 59.1033C91.6268 58.5359 91.8158 58.063 92.0049 57.5902L90.587 56.8337C85.6716 54.1859 82.5522 48.9848 82.5522 43.4054C82.5522 37.8261 85.6716 32.5304 90.587 29.8826C91.0596 29.5989 91.5323 29.4098 92.0049 29.2207C91.8158 28.6533 91.6268 28.1804 91.5323 27.7076C89.9253 22.412 91.3432 16.4543 95.3134 12.4826C100.134 7.84891 106.657 7.09239 111.95 9.07826L112.517 8.03804C114.975 3.40434 119.796 0 125.846 0C131.423 0 136.149 2.74239 138.985 7.56522C139.363 8.13261 139.647 8.7 139.93 9.26739C145.507 7.09239 152.124 7.65978 157.134 12.4826C161.104 16.4543 162.522 22.412 160.915 27.7076C160.821 28.1804 160.632 28.6533 160.443 29.2207C160.915 29.4098 161.388 29.5989 161.86 29.8826C166.776 32.5304 169.895 37.8261 169.895 43.4054C169.895 48.9848 166.776 54.1859 161.86 56.8337L160.443 57.5902C160.632 58.063 160.821 58.5359 160.915 59.1033C162.522 64.3989 161.01 70.3565 157.134 74.2337C152.408 78.962 145.98 79.813 140.403 77.638C140.214 78.1109 139.93 78.5837 139.647 79.0565C136.811 84.163 132.084 87 126.224 87ZM94.8407 43.4054C94.8407 48.512 105.144 46.5261 107.129 51.2543C109.114 56.0772 100.323 61.9402 104.01 65.6283C104.672 66.2902 105.333 66.4793 106.089 66.4793C109.209 66.4793 113.274 62.1293 116.771 62.1293C117.338 62.1293 117.811 62.2239 118.283 62.413C123.104 64.3989 121.025 74.8011 126.224 74.8011C131.423 74.8011 129.343 64.3989 134.164 62.413C134.637 62.2239 135.109 62.1293 135.676 62.1293C139.174 62.1293 143.239 66.4793 146.358 66.4793C147.114 66.4793 147.776 66.2902 148.438 65.6283C152.124 61.9402 143.333 56.0772 145.318 51.2543C147.303 46.5261 157.607 48.512 157.607 43.4054C157.607 38.2043 147.303 40.2848 145.318 35.462C143.333 30.7337 152.124 24.7761 148.438 21.1826C147.776 20.5207 147.114 20.237 146.358 20.237C143.239 20.237 139.174 24.587 135.676 24.587C135.109 24.587 134.637 24.4924 134.164 24.3033C129.343 22.3174 130.572 12.1989 125.846 12.1989C120.836 12.1989 123.104 22.3174 118.283 24.3033C117.811 24.4924 117.338 24.587 116.771 24.587C113.274 24.587 109.209 20.237 106.089 20.237C105.333 20.237 104.672 20.5207 104.01 21.1826C100.323 24.7761 109.114 30.7337 107.129 35.462C105.144 40.2848 94.8407 38.2043 94.8407 43.4054Z" fill="#4200FE"/>
<path d="M184.394 81.3261V5.67391H197.628V68.8435H248.105V81.3261H184.394Z" fill="#4200FE"/>
<path d="M258.35 81.3261C258.35 78.0163 259.579 75.0848 262.037 72.6261C263.738 70.9239 265.723 69.6946 267.425 68.6543C268.464 67.9924 270.638 66.9522 270.638 66.2902C270.638 65.6283 268.464 64.6826 267.425 64.0206C265.723 62.9804 263.738 61.7511 262.037 60.0489C259.579 57.5902 258.35 54.5641 258.35 51.2543C258.35 47.9446 259.579 45.013 262.037 42.5543C263.738 40.8522 265.723 39.6228 267.425 38.5826C268.464 37.9206 270.638 36.975 270.638 36.313C270.638 35.6511 268.464 34.6109 267.425 33.9489C265.723 32.9087 263.738 31.6793 262.037 29.9772C259.579 27.5185 258.35 24.587 258.35 21.2772C258.35 17.9674 259.579 15.0359 262.037 12.5772C263.738 10.7804 265.723 9.64565 267.425 8.51087C268.464 7.84891 270.355 6.71413 270.638 6.2413H282.832C282.832 9.55108 281.604 12.4826 279.146 14.9413C277.539 16.738 275.554 17.8728 273.852 19.0076C272.718 19.575 270.638 20.6152 270.638 21.2772C270.638 21.9391 272.718 22.8848 273.852 23.5467C275.554 24.587 277.539 25.8163 279.146 27.5185C281.604 30.0717 282.832 33.0033 282.832 36.313C282.832 39.6228 281.604 42.5543 279.146 45.013C277.539 46.7152 275.554 47.9446 273.852 48.9848C272.718 49.6467 270.638 50.5924 270.638 51.2543C270.638 52.0109 272.718 52.9565 273.852 53.6185C275.554 54.6587 277.539 55.888 279.146 57.5902C281.604 60.0489 282.832 62.9804 282.832 66.2902C282.832 69.6 281.604 72.5315 279.146 75.0848C277.539 76.787 275.554 77.9217 273.852 79.0565L270.638 81.3261H258.35Z" fill="#4200FE"/>
<path d="M348.357 81.7043C337.109 81.7043 330.113 74.4228 330.113 62.5076C330.113 52.2 335.029 41.2304 340.133 33.0978C333.611 25.3435 324.914 17.8728 314.8 17.8728V81.3261H301.566V5.67391H314.8C328.223 5.67391 339.472 13.9957 347.696 22.9793C355.825 13.8065 366.885 5.67391 379.835 5.67391H393.069V81.3261H379.835V18.062C371.611 18.062 363.198 23.3576 355.352 33.0033C360.74 41.0413 366.128 52.5783 366.128 63.1696C366.128 74.7065 359.228 81.7043 348.357 81.7043ZM342.307 62.5076C342.307 67.2359 343.631 69.5054 348.357 69.5054C352.8 69.5054 353.934 67.5196 353.934 63.1696C353.934 57.8739 351.666 50.9707 347.885 44.162C344.387 50.687 342.307 57.3065 342.307 62.5076Z" fill="#4200FE"/>
<path d="M451.219 87C444.224 87 438.93 82.3663 437.04 77.638C431.179 79.9076 424.846 78.7728 420.308 74.2337C416.433 70.3565 414.92 64.3989 416.527 59.1033C416.622 58.5359 416.811 58.063 417 57.5902L415.582 56.8337C410.667 54.1859 407.547 48.9848 407.547 43.4054C407.547 37.8261 410.667 32.5304 415.582 29.8826C416.055 29.5989 416.527 29.4098 417 29.2207C416.811 28.6533 416.622 28.1804 416.527 27.7076C414.92 22.412 416.338 16.4543 420.308 12.4826C425.129 7.84891 431.652 7.09239 436.945 9.07826L437.512 8.03804C439.97 3.40434 444.791 0 450.841 0C456.418 0 461.144 2.74239 463.98 7.56522C464.358 8.13261 464.642 8.7 464.925 9.26739C470.502 7.09239 477.119 7.65978 482.129 12.4826C486.099 16.4543 487.517 22.412 485.91 27.7076C485.816 28.1804 485.627 28.6533 485.438 29.2207C485.91 29.4098 486.383 29.5989 486.855 29.8826C491.771 32.5304 494.89 37.8261 494.89 43.4054C494.89 48.9848 491.771 54.1859 486.855 56.8337L485.438 57.5902C485.627 58.063 485.816 58.5359 485.91 59.1033C487.517 64.3989 486.005 70.3565 482.129 74.2337C477.403 78.962 470.975 79.813 465.398 77.638C465.209 78.1109 464.925 78.5837 464.642 79.0565C461.806 84.163 457.079 87 451.219 87ZM419.836 43.4054C419.836 48.512 430.139 46.5261 432.124 51.2543C434.109 56.0772 425.318 61.9402 429.005 65.6283C429.667 66.2902 430.328 66.4793 431.084 66.4793C434.204 66.4793 438.268 62.1293 441.766 62.1293C442.333 62.1293 442.806 62.2239 443.278 62.413C448.099 64.3989 446.02 74.8011 451.219 74.8011C456.418 74.8011 454.338 64.3989 459.159 62.413C459.632 62.2239 460.104 62.1293 460.671 62.1293C464.169 62.1293 468.234 66.4793 471.353 66.4793C472.109 66.4793 472.771 66.2902 473.433 65.6283C477.119 61.9402 468.328 56.0772 470.313 51.2543C472.298 46.5261 482.602 48.512 482.602 43.4054C482.602 38.2043 472.298 40.2848 470.313 35.462C468.328 30.7337 477.119 24.7761 473.433 21.1826C472.771 20.5207 472.109 20.237 471.353 20.237C468.234 20.237 464.169 24.587 460.671 24.587C460.104 24.587 459.632 24.4924 459.159 24.3033C454.338 22.3174 455.567 12.1989 450.841 12.1989C445.831 12.1989 448.099 22.3174 443.278 24.3033C442.806 24.4924 442.333 24.587 441.766 24.587C438.268 24.587 434.204 20.237 431.084 20.237C430.328 20.237 429.667 20.5207 429.005 21.1826C425.318 24.7761 434.109 30.7337 432.124 35.462C430.139 40.2848 419.836 38.2043 419.836 43.4054Z" fill="#4200FE"/>
<path d="M546.443 86.6217C543.513 86.6217 540.677 85.3924 538.22 83.0283C535.478 80.5696 534.249 75.1793 527.538 74.4228C525.647 74.2337 523.473 73.95 521.488 73.3826C518.18 72.3424 515.817 70.6402 514.304 68.087C512.886 65.6283 512.603 62.6967 513.359 59.4815C513.832 57.4011 516.951 50.3087 516.951 49.5522C516.951 48.7011 516.856 48.6065 515.06 46.8098C512.981 44.8239 509.389 41.325 509.389 34.9891C509.389 28.5587 512.981 25.1543 515.06 23.0739C516.856 21.3717 516.951 21.1826 516.951 20.3315C516.951 19.575 516.856 19.3859 515.06 17.6837C512.981 15.6033 509.389 12.1043 509.389 5.76848H522.15C522.15 6.61956 529.712 13.9957 529.712 20.3315C529.712 26.762 526.12 30.1663 523.946 32.2467C522.15 33.9489 522.15 34.138 522.15 34.9891C522.15 35.7457 522.15 35.9348 523.946 37.637C526.12 39.7174 529.712 43.2163 529.712 49.5522C529.712 53.9967 527.254 58.1576 526.12 61.3728C529.523 61.9402 534.344 61.8456 538.125 64.1152C540.866 65.7228 542.757 68.3707 544.458 70.6402C545.026 71.3967 545.782 72.5315 546.443 73.288C547.105 72.5315 547.861 71.3967 548.428 70.6402C550.13 68.3707 552.021 65.7228 554.856 64.1152C557.692 62.413 561.001 62.0348 563.931 61.7511L566.767 61.3728C566.483 60.5217 566.105 59.5761 565.727 58.8196C564.593 56.0772 563.175 52.9565 563.175 49.5522C563.175 43.2163 566.767 39.7174 568.941 37.637C570.737 35.9348 570.737 35.7457 570.737 34.9891C570.737 34.138 570.737 33.9489 568.941 32.2467C566.767 30.1663 563.175 26.762 563.175 20.3315C563.175 13.9957 570.737 6.61956 570.737 5.76848H583.498C583.498 12.1043 579.906 15.6033 577.826 17.6837C576.03 19.3859 575.936 19.575 575.936 20.3315C575.936 21.1826 576.03 21.3717 577.826 23.0739C579.906 25.1543 583.498 28.5587 583.498 34.9891C583.498 41.325 579.906 44.8239 577.826 46.8098C576.03 48.6065 575.936 48.7011 575.936 49.5522C575.936 50.3087 576.881 52.4837 577.448 53.713C578.299 55.6043 579.055 57.4011 579.528 59.4815C580.284 62.6967 580.001 65.6283 578.583 68.087C577.07 70.6402 574.707 72.3424 571.493 73.3826C569.414 73.95 567.239 74.2337 565.349 74.4228C558.732 75.1793 557.409 80.5696 554.667 83.0283C552.21 85.3924 549.468 86.6217 546.443 86.6217Z" fill="#4200FE"/>
<path d="M627.791 81.3261L593.761 5.67391H608.413L634.881 67.8978L661.348 5.67391H676L641.97 81.3261H627.791Z" fill="#4200FE"/>
</svg>
