<svg width="415" height="415" viewBox="0 0 415 415" fill="none" xmlns="http://www.w3.org/2000/svg">
<path d="M207.5 415C174.264 415 149.113 392.897 140.13 370.342C112.284 381.168 82.1914 375.755 60.633 354.103C42.2185 335.609 35.0324 307.19 42.6677 281.929C43.1169 279.223 44.015 276.967 44.9133 274.712L38.1763 271.103C14.8214 258.473 0 233.663 0 207.049C0 180.435 14.8214 155.174 38.1763 142.543C40.422 141.19 42.6676 140.288 44.9133 139.386C44.015 136.679 43.1169 134.424 42.6677 132.168C35.0324 106.908 41.7693 78.4891 60.633 59.5435C83.5388 37.4402 114.529 33.8315 139.681 43.3043L142.375 38.3424C154.053 16.2391 176.959 0 205.703 0C232.202 0 254.659 13.0815 268.133 36.0869C269.93 38.7935 271.277 41.5 272.624 44.2065C299.123 33.8315 330.563 36.538 354.367 59.5435C373.231 78.4891 379.968 106.908 372.332 132.168C371.883 134.424 370.985 136.679 370.087 139.386C372.332 140.288 374.578 141.19 376.824 142.543C400.178 155.174 415 180.435 415 207.049C415 233.663 400.178 258.473 376.824 271.103L370.087 274.712C370.985 276.967 371.883 279.223 372.332 281.929C379.968 307.19 372.781 335.609 354.367 354.103C331.91 376.658 301.369 380.717 274.87 370.342C273.972 372.598 272.625 374.853 271.277 377.109C257.803 401.467 235.346 415 207.5 415ZM58.3874 207.049C58.3874 231.408 107.343 221.935 116.775 244.489C126.207 267.495 84.4371 295.462 101.953 313.054C105.097 316.212 108.241 317.114 111.834 317.114C126.656 317.114 145.969 296.364 162.587 296.364C165.281 296.364 167.527 296.815 169.773 297.717C192.679 307.19 182.798 356.81 207.5 356.81C232.202 356.81 222.321 307.19 245.227 297.717C247.473 296.815 249.719 296.364 252.413 296.364C269.031 296.364 288.344 317.114 303.166 317.114C306.759 317.114 309.903 316.212 313.046 313.054C330.563 295.462 288.793 267.495 298.225 244.489C307.657 221.935 356.613 231.408 356.613 207.049C356.613 182.239 307.657 192.163 298.225 169.158C288.793 146.603 330.563 118.185 313.046 101.043C309.903 97.8859 306.759 96.5326 303.166 96.5326C288.344 96.5326 269.031 117.283 252.413 117.283C249.719 117.283 247.473 116.832 245.227 115.929C222.321 106.457 228.16 58.1902 205.703 58.1902C181.899 58.1902 192.679 106.457 169.773 115.929C167.527 116.832 165.281 117.283 162.587 117.283C145.969 117.283 126.656 96.5326 111.834 96.5326C108.241 96.5326 105.097 97.8859 101.953 101.043C84.4371 118.185 126.207 146.603 116.775 169.158C107.343 192.163 58.3874 182.239 58.3874 207.049Z" fill="#FBFBFB"/>
</svg>
